<svg xmlns="http://www.w3.org/2000/svg" viewBox="0 0 256 256">
  <defs>
    <linearGradient id="gold" x1="0" x2="1" y1="0" y2="1">
      <stop offset="0%" stop-color="#F5E6A7"/>
      <stop offset="50%" stop-color="#D4AF37"/>
      <stop offset="100%" stop-color="#8C6A00"/>
    </linearGradient>
    <filter id="softGlow" x="-20%" y="-20%" width="140%" height="140%">
      <feGaussianBlur stdDeviation="3" result="blur"/>
      <feMerge>
        <feMergeNode in="blur"/>
        <feMergeNode in="SourceGraphic"/>
      </feMerge>
    </filter>
  </defs>
  <rect width="256" height="256" rx="48" fill="#0B0B12"/>
  <!-- G-shaped molecule -->
  <g filter="url(#softGlow)">
    <path d="M176 128h-44a8 8 0 0 0 0 16h28c-9 24-32 40-60 40-35 0-64-29-64-64s29-64 64-64c25 0 46 14 57 34a8 8 0 1 0 14-8C157 57 131 40 100 40 54 40 16 78 16 124s38 84 84 84c40 0 73-26 84-64a8 8 0 0 0-8-16z" fill="url(#gold)"/>
    <!-- molecular nodes -->
    <circle cx="100" cy="40" r="6" fill="url(#gold)"/>
    <circle cx="176" cy="128" r="6" fill="url(#gold)"/>
    <circle cx="36" cy="124" r="6" fill="url(#gold)"/>
    <circle cx="100" cy="208" r="6" fill="url(#gold)"/>
    <!-- bonds -->
    <path d="M100 46 L170 86" stroke="url(#gold)" stroke-width="3" stroke-linecap="round" opacity="0.8"/>
    <path d="M42 124 L92 124" stroke="url(#gold)" stroke-width="3" stroke-linecap="round" opacity="0.8"/>
    <path d="M100 202 L150 162" stroke="url(#gold)" stroke-width="3" stroke-linecap="round" opacity="0.8"/>
  </g>
</svg>
